<mxfile host="Electron" agent="Mozilla/5.0 (Windows NT 10.0; Win64; x64) AppleWebKit/537.36 (KHTML, like Gecko) draw.io/24.7.17 Chrome/128.0.6613.36 Electron/32.0.1 Safari/537.36" version="24.7.17">
  <diagram id="Te7KNKuGJ4X3ehOgWcoN" name="Страница — 2">
    <mxGraphModel dx="988" dy="589" grid="1" gridSize="4" guides="1" tooltips="1" connect="1" arrows="1" fold="1" page="1" pageScale="1" pageWidth="1654" pageHeight="1169" math="0" shadow="0">
      <root>
        <mxCell id="0" />
        <mxCell id="1" parent="0" />
        <mxCell id="AEhkCfdntICbrnmA33MI-7" value="" style="rounded=0;whiteSpace=wrap;html=1;strokeColor=none;" vertex="1" parent="1">
          <mxGeometry x="52" y="56" width="568" height="404" as="geometry" />
        </mxCell>
        <mxCell id="AEhkCfdntICbrnmA33MI-8" value="" style="group" vertex="1" connectable="0" parent="1">
          <mxGeometry x="56" y="68.5" width="560" height="379" as="geometry" />
        </mxCell>
        <mxCell id="wh46kI_Pz2tudDJDYyms-1" value="Клиент" style="shape=image;verticalLabelPosition=bottom;labelBackgroundColor=default;verticalAlign=top;aspect=fixed;imageAspect=0;image=data:image/svg+xml,PHN2ZyB4bWxucz0iaHR0cDovL3d3dy53My5vcmcvMjAwMC9zdmciIGZpbGw9Im5vbmUiIHZpZXdCb3g9IjAgMCAyOCAyOCIgaGVpZ2h0PSIyOCIgd2lkdGg9IjI4Ij4mI3hhOzxwYXRoIGZpbGw9IiMyNjg4RUIiIGQ9Ik0xNy41IDguNUMxNy41IDYuNTY2MDMgMTUuOTM0IDUgMTQgNUMxMi4wNjYgNSAxMC41IDYuNTY2MDMgMTAuNSA4LjVDMTAuNSAxMC40MzQgMTIuMDY2IDEyIDE0IDEyQzE1LjkzNCAxMiAxNy41IDEwLjQzNCAxNy41IDguNVpNMTkuNSA4LjVDMTkuNSAxMS41Mzg1IDE3LjAzODUgMTQgMTQgMTRDMTAuOTYxNSAxNCA4LjUgMTEuNTM4NSA4LjUgOC41QzguNSA1LjQ2MTQ3IDEwLjk2MTUgMyAxNCAzQzE3LjAzODUgMyAxOS41IDUuNDYxNDcgMTkuNSA4LjVaTTcgMjAuNjQyOUM3IDIxLjU4NjIgNi45MTk4NyAyMS41IDcuNDU1ODggMjEuNUgyMS4wNDQxQzIxLjU4MDEgMjEuNSAyMS41IDIxLjU4NjIgMjEuNSAyMC42NDI5QzIxLjUgMTguMzU0NyAxOC4xOTYgMTcgMTQuMjUgMTdDMTAuMzA0IDE3IDcgMTguMzU0NyA3IDIwLjY0MjlaTTUgMjAuNjQyOUM1IDE2Ljc2MjYgOS4yOTg5MiAxNSAxNC4yNSAxNUMxOS4yMDExIDE1IDIzLjUgMTYuNzYyNiAyMy41IDIwLjY0MjlDMjMuNSAyMi42NTkzIDIyLjcxODkgMjMuNSAyMS4wNDQxIDIzLjVINy40NTU4OEM1Ljc4MTExIDIzLjUgNSAyMi42NTkzIDUgMjAuNjQyOVoiLz4mI3hhOzwvc3ZnPg==;fontFamily=VK Sans Display;spacing=-7;fontColor=#212121;movable=1;resizable=1;rotatable=1;deletable=1;editable=1;locked=0;connectable=1;" parent="AEhkCfdntICbrnmA33MI-8" vertex="1">
          <mxGeometry y="5" width="56" height="56" as="geometry" />
        </mxCell>
        <mxCell id="hWyu07mLAa9sBui41SLd-1" value="" style="endArrow=open;html=1;fontFamily=VK Sans Display;fontColor=#212121;rounded=1;strokeColor=#7C8A9A;endFill=0;arcsize=8;dashed=1;strokeWidth=2;arcSize=8;" parent="AEhkCfdntICbrnmA33MI-8" edge="1">
          <mxGeometry width="50" height="50" relative="1" as="geometry">
            <mxPoint x="170" y="45" as="sourcePoint" />
            <mxPoint x="170" y="379" as="targetPoint" />
            <Array as="points" />
          </mxGeometry>
        </mxCell>
        <mxCell id="wlQvsGuYTjPVu_sZcRDj-1" value="&lt;font color=&quot;#212121&quot; face=&quot;VK Sans Display&quot;&gt;Прием и классификация обращений. Решение типовых проблем и консультации&lt;/font&gt;" style="text;html=1;align=left;verticalAlign=middle;whiteSpace=wrap;rounded=0;" parent="AEhkCfdntICbrnmA33MI-8" vertex="1">
          <mxGeometry x="277.17" y="18" width="252.83" height="30" as="geometry" />
        </mxCell>
        <mxCell id="wlQvsGuYTjPVu_sZcRDj-2" value="&lt;font color=&quot;#212121&quot; face=&quot;VK Sans Display&quot;&gt;Углубленная диагностика&amp;nbsp;&lt;/font&gt;&lt;div&gt;&lt;font color=&quot;#212121&quot; face=&quot;VK Sans Display&quot;&gt;и решение сложных инцидентов.&amp;nbsp;&lt;/font&gt;&lt;/div&gt;&lt;div&gt;&lt;font color=&quot;#212121&quot; face=&quot;VK Sans Display&quot;&gt;Экспертиза по продуктам&lt;/font&gt;&lt;/div&gt;" style="text;html=1;align=left;verticalAlign=middle;whiteSpace=wrap;rounded=0;" parent="AEhkCfdntICbrnmA33MI-8" vertex="1">
          <mxGeometry x="277.17" y="118" width="262.83" height="30" as="geometry" />
        </mxCell>
        <mxCell id="wlQvsGuYTjPVu_sZcRDj-3" value="&lt;font color=&quot;#212121&quot; face=&quot;VK Sans Display&quot;&gt;Обеспечение работоспособности платформы.&amp;nbsp;&lt;/font&gt;&lt;div&gt;&lt;font color=&quot;#212121&quot; face=&quot;VK Sans Display&quot;&gt;Устранение массовых сбоев&amp;nbsp;&lt;/font&gt;&lt;span style=&quot;color: rgb(33, 33, 33); font-family: &amp;quot;VK Sans Display&amp;quot;; background-color: initial;&quot;&gt;и ошибок&amp;nbsp;&lt;/span&gt;&lt;/div&gt;&lt;div&gt;&lt;span style=&quot;color: rgb(33, 33, 33); font-family: &amp;quot;VK Sans Display&amp;quot;; background-color: initial;&quot;&gt;на стороне платформы&lt;/span&gt;&lt;/div&gt;" style="text;html=1;align=left;verticalAlign=middle;whiteSpace=wrap;rounded=0;" parent="AEhkCfdntICbrnmA33MI-8" vertex="1">
          <mxGeometry x="277.17" y="213" width="282.83" height="30" as="geometry" />
        </mxCell>
        <mxCell id="wlQvsGuYTjPVu_sZcRDj-4" value="&lt;font color=&quot;#212121&quot; face=&quot;VK Sans Display&quot;&gt;Развитие продуктов и платформы. Реализация новой функциональности&lt;/font&gt;" style="text;html=1;align=left;verticalAlign=middle;whiteSpace=wrap;rounded=0;" parent="AEhkCfdntICbrnmA33MI-8" vertex="1">
          <mxGeometry x="277.17" y="316" width="222.83" height="30" as="geometry" />
        </mxCell>
        <mxCell id="kx820ixtvMuCey8GTEla-1" value="Обращение" style="endArrow=open;html=1;fontFamily=VK Sans Display;fontColor=#212121;rounded=1;strokeColor=#7C8A9A;endFill=0;arcsize=8;startArrow=none;startFill=0;strokeWidth=2;labelBackgroundColor=#FFFFFF;textOpacity=70;verticalAlign=middle;spacing=8;fontSize=12;arcSize=8;" parent="AEhkCfdntICbrnmA33MI-8" edge="1">
          <mxGeometry x="-0.0182" y="-10" width="50" height="50" relative="1" as="geometry">
            <mxPoint x="56" y="35" as="sourcePoint" />
            <mxPoint x="166" y="35" as="targetPoint" />
            <Array as="points">
              <mxPoint x="96" y="35" />
              <mxPoint x="126" y="35" />
            </Array>
            <mxPoint as="offset" />
          </mxGeometry>
        </mxCell>
        <mxCell id="AEhkCfdntICbrnmA33MI-3" value="" style="group" vertex="1" connectable="0" parent="AEhkCfdntICbrnmA33MI-8">
          <mxGeometry x="189.17000000000002" width="68" height="66" as="geometry" />
        </mxCell>
        <mxCell id="wh46kI_Pz2tudDJDYyms-2" value="L1" style="shape=image;verticalLabelPosition=bottom;labelBackgroundColor=default;verticalAlign=top;aspect=fixed;imageAspect=0;image=data:image/svg+xml,PHN2ZyB4bWxucz0iaHR0cDovL3d3dy53My5vcmcvMjAwMC9zdmciIGZpbGw9Im5vbmUiIHZpZXdCb3g9IjAgMCAyOCAyOCIgaGVpZ2h0PSIyOCIgd2lkdGg9IjI4Ij4mI3hhOzxwYXRoIGZpbGw9IiMyNjg4RUIiIGQ9Ik0xNy41IDguNUMxNy41IDYuNTY2MDMgMTUuOTM0IDUgMTQgNUMxMi4wNjYgNSAxMC41IDYuNTY2MDMgMTAuNSA4LjVDMTAuNSAxMC40MzQgMTIuMDY2IDEyIDE0IDEyQzE1LjkzNCAxMiAxNy41IDEwLjQzNCAxNy41IDguNVpNMTkuNSA4LjVDMTkuNSAxMS41Mzg1IDE3LjAzODUgMTQgMTQgMTRDMTAuOTYxNSAxNCA4LjUgMTEuNTM4NSA4LjUgOC41QzguNSA1LjQ2MTQ3IDEwLjk2MTUgMyAxNCAzQzE3LjAzODUgMyAxOS41IDUuNDYxNDcgMTkuNSA4LjVaTTcgMjAuNjQyOUM3IDIxLjU4NjIgNi45MTk4NyAyMS41IDcuNDU1ODggMjEuNUgyMS4wNDQxQzIxLjU4MDEgMjEuNSAyMS41IDIxLjU4NjIgMjEuNSAyMC42NDI5QzIxLjUgMTguMzU0NyAxOC4xOTYgMTcgMTQuMjUgMTdDMTAuMzA0IDE3IDcgMTguMzU0NyA3IDIwLjY0MjlaTTUgMjAuNjQyOUM1IDE2Ljc2MjYgOS4yOTg5MiAxNSAxNC4yNSAxNUMxOS4yMDExIDE1IDIzLjUgMTYuNzYyNiAyMy41IDIwLjY0MjlDMjMuNSAyMi42NTkzIDIyLjcxODkgMjMuNSAyMS4wNDQxIDIzLjVINy40NTU4OEM1Ljc4MTExIDIzLjUgNSAyMi42NTkzIDUgMjAuNjQyOVoiLz4mI3hhOzwvc3ZnPg==;fontFamily=VK Sans Display;spacing=-7;fontColor=#212121;" parent="AEhkCfdntICbrnmA33MI-3" vertex="1">
          <mxGeometry y="10" width="56" height="56" as="geometry" />
        </mxCell>
        <mxCell id="KlxILGTFoJa7OiWJsDlm-8" value="" style="shape=image;verticalLabelPosition=bottom;labelBackgroundColor=default;verticalAlign=top;aspect=fixed;imageAspect=0;image=data:image/svg+xml,PHN2ZyB4bWxucz0iaHR0cDovL3d3dy53My5vcmcvMjAwMC9zdmciIGZpbGw9Im5vbmUiIHZpZXdCb3g9IjAgMCAyOCAyOCIgaGVpZ2h0PSIyOCIgd2lkdGg9IjI4Ij4mI3hhOzxwYXRoIGZpbGw9IiMyNjg4RUIiIGQ9Ik0yLjUzNjgyIDEzLjQ5ODlDMi41MzY4MiA3LjgzOTAyIDcuODI1ODMgMy41IDE0LjAxODQgMy41QzIwLjIxMSAzLjUgMjUuNSA3LjgzOTAyIDI1LjUgMTMuNDk4OUMyNS41IDE5LjE1ODkgMjAuMjExIDIzLjQ5NzkgMTQuMDE4NCAyMy40OTc5QzEyLjY0NTMgMjMuNDk3OSAxMS4zMjU0IDIzLjI4OCAxMC4xMDA0IDIyLjkwMTNDOC42NTU1NiAyNC4yNDk4IDYuNTU2MjUgMjQuODk4IDMuOTg4MjMgMjQuOTk4OUMyLjk0MjEzIDI1LjA0IDIuMTg3MDcgMjMuOTUxOSAyLjYyNTEgMjIuOTc4QzMuMjQ2NSAyMS41ODY2IDQuMDQ5NCAxOS45OTE1IDQuMTQ0NjEgMTguNjAwMkMzLjEyNzc4IDE3LjExOTUgMi41MzY4MiAxNS4zNzIxIDIuNTM2ODIgMTMuNDk4OVpNMTQuMDE4NCA1LjVDOC42MzMzMyA1LjUgNC41MzY4MiA5LjIxODkxIDQuNTM2ODIgMTMuNDk4OUM0LjUzNjgyIDE1LjAzNTkgNS4wNTE0NSAxNi40Nzc4IDUuOTU4NjggMTcuNjk5NkM2LjA4NjY5IDE3Ljg3MiA2LjE1NTgyIDE4LjA4MSA2LjE1NTgyIDE4LjI5NTdDNi4xNTU4MiAxOS45Mjk1IDUuNTA0NTUgMjEuNDcxIDQuODQxMzkgMjIuOTMzOUM2Ljg5NzQ2IDIyLjcxNTUgOC4yNDYzIDIyLjA1NzEgOS4wNTk2NSAyMS4xQzkuMzMyODIgMjAuNzc4NiA5Ljc3ODMzIDIwLjY2MzEgMTAuMTczMiAyMC44MTE0QzExLjM0NTUgMjEuMjUxNiAxMi42NDU4IDIxLjQ5NzkgMTQuMDE4NCAyMS40OTc5QzE5LjQwMzUgMjEuNDk3OSAyMy41IDE3Ljc3OSAyMy41IDEzLjQ5ODlDMjMuNSA5LjIxODkxIDE5LjQwMzUgNS41IDE0LjAxODQgNS41WiIgY2xpcC1ydWxlPSJldmVub2RkIiBmaWxsLXJ1bGU9ImV2ZW5vZGQiLz4mI3hhOzxwYXRoIGZpbGw9IiMyNjg4RUIiIGQ9Ik0xOC4yMDcxIDEwLjI5MjlDMTguNTk3NiAxMC42ODM0IDE4LjU5NzYgMTEuMzE2NiAxOC4yMDcxIDExLjcwNzFMMTMuMjA3MSAxNi43MDcxQzEyLjgxNjYgMTcuMDk3NiAxMi4xODM0IDE3LjA5NzYgMTEuNzkyOSAxNi43MDcxTDkuNzkyODcgMTQuNzA3MUM5LjQwMjM1IDE0LjMxNjYgOS40MDIzNSAxMy42ODM0IDkuNzkyODcgMTMuMjkyOUMxMC4xODM0IDEyLjkwMjQgMTAuODE2NiAxMi45MDI0IDExLjIwNzEgMTMuMjkyOUwxMi41IDE0LjU4NThMMTYuNzkyOSAxMC4yOTI5QzE3LjE4MzQgOS45MDIzNyAxNy44MTY2IDkuOTAyMzcgMTguMjA3MSAxMC4yOTI5WiIgY2xpcC1ydWxlPSJldmVub2RkIiBmaWxsLXJ1bGU9ImV2ZW5vZGQiLz4mI3hhOzwvc3ZnPg==;" parent="AEhkCfdntICbrnmA33MI-3" vertex="1">
          <mxGeometry x="40" width="28" height="28" as="geometry" />
        </mxCell>
        <mxCell id="AEhkCfdntICbrnmA33MI-4" value="" style="group" vertex="1" connectable="0" parent="AEhkCfdntICbrnmA33MI-8">
          <mxGeometry x="189.17000000000002" y="95" width="68" height="66" as="geometry" />
        </mxCell>
        <mxCell id="wh46kI_Pz2tudDJDYyms-3" value="L2" style="shape=image;verticalLabelPosition=bottom;labelBackgroundColor=default;verticalAlign=top;aspect=fixed;imageAspect=0;image=data:image/svg+xml,PHN2ZyB4bWxucz0iaHR0cDovL3d3dy53My5vcmcvMjAwMC9zdmciIGZpbGw9Im5vbmUiIHZpZXdCb3g9IjAgMCAyOCAyOCIgaGVpZ2h0PSIyOCIgd2lkdGg9IjI4Ij4mI3hhOzxwYXRoIGZpbGw9IiMyNjg4RUIiIGQ9Ik0xNy41IDguNUMxNy41IDYuNTY2MDMgMTUuOTM0IDUgMTQgNUMxMi4wNjYgNSAxMC41IDYuNTY2MDMgMTAuNSA4LjVDMTAuNSAxMC40MzQgMTIuMDY2IDEyIDE0IDEyQzE1LjkzNCAxMiAxNy41IDEwLjQzNCAxNy41IDguNVpNMTkuNSA4LjVDMTkuNSAxMS41Mzg1IDE3LjAzODUgMTQgMTQgMTRDMTAuOTYxNSAxNCA4LjUgMTEuNTM4NSA4LjUgOC41QzguNSA1LjQ2MTQ3IDEwLjk2MTUgMyAxNCAzQzE3LjAzODUgMyAxOS41IDUuNDYxNDcgMTkuNSA4LjVaTTcgMjAuNjQyOUM3IDIxLjU4NjIgNi45MTk4NyAyMS41IDcuNDU1ODggMjEuNUgyMS4wNDQxQzIxLjU4MDEgMjEuNSAyMS41IDIxLjU4NjIgMjEuNSAyMC42NDI5QzIxLjUgMTguMzU0NyAxOC4xOTYgMTcgMTQuMjUgMTdDMTAuMzA0IDE3IDcgMTguMzU0NyA3IDIwLjY0MjlaTTUgMjAuNjQyOUM1IDE2Ljc2MjYgOS4yOTg5MiAxNSAxNC4yNSAxNUMxOS4yMDExIDE1IDIzLjUgMTYuNzYyNiAyMy41IDIwLjY0MjlDMjMuNSAyMi42NTkzIDIyLjcxODkgMjMuNSAyMS4wNDQxIDIzLjVINy40NTU4OEM1Ljc4MTExIDIzLjUgNSAyMi42NTkzIDUgMjAuNjQyOVoiLz4mI3hhOzwvc3ZnPg==;fontFamily=VK Sans Display;spacing=-7;fontColor=#212121;" parent="AEhkCfdntICbrnmA33MI-4" vertex="1">
          <mxGeometry y="10" width="56" height="56" as="geometry" />
        </mxCell>
        <mxCell id="kx820ixtvMuCey8GTEla-2" value="" style="shape=image;verticalLabelPosition=bottom;labelBackgroundColor=default;verticalAlign=top;aspect=fixed;imageAspect=0;image=data:image/svg+xml,PHN2ZyB4bWxucz0iaHR0cDovL3d3dy53My5vcmcvMjAwMC9zdmciIGZpbGw9Im5vbmUiIHZpZXdCb3g9IjAgMCAyOCAyOCIgaGVpZ2h0PSIyOCIgd2lkdGg9IjI4Ij4mI3hhOzxwYXRoIGZpbGw9IiMyNjg4RUIiIGQ9Ik0xMyA0QzguMDI5NDQgNCA0IDguMDI5NDQgNCAxM0M0IDE3Ljk3MDYgOC4wMjk0NCAyMiAxMyAyMkMxNS4xMjUgMjIgMTcuMDc4IDIxLjI2MzUgMTguNjE3NyAyMC4wMzE5TDIzLjI5MjkgMjQuNzA3MUMyMy42ODM0IDI1LjA5NzYgMjQuMzE2NiAyNS4wOTc2IDI0LjcwNzEgMjQuNzA3MUMyNS4wOTc2IDI0LjMxNjYgMjUuMDk3NiAyMy42ODM0IDI0LjcwNzEgMjMuMjkyOUwyMC4wMzE5IDE4LjYxNzdDMjEuMjYzNSAxNy4wNzggMjIgMTUuMTI1IDIyIDEzQzIyIDguMDI5NDQgMTcuOTcwNiA0IDEzIDRaTTEzIDZDOS4xMzQwMSA2IDYgOS4xMzQwMSA2IDEzQzYgMTYuODY2IDkuMTM0MDEgMjAgMTMgMjBDMTYuODY2IDIwIDIwIDE2Ljg2NiAyMCAxM0MyMCA5LjEzNDAxIDE2Ljg2NiA2IDEzIDZaIiBjbGlwLXJ1bGU9ImV2ZW5vZGQiIGZpbGwtcnVsZT0iZXZlbm9kZCIvPiYjeGE7PC9zdmc+;" parent="AEhkCfdntICbrnmA33MI-4" vertex="1">
          <mxGeometry x="40" width="28" height="28" as="geometry" />
        </mxCell>
        <mxCell id="AEhkCfdntICbrnmA33MI-5" value="" style="group" vertex="1" connectable="0" parent="AEhkCfdntICbrnmA33MI-8">
          <mxGeometry x="189.17000000000002" y="195" width="68" height="66" as="geometry" />
        </mxCell>
        <mxCell id="wh46kI_Pz2tudDJDYyms-4" value="L3" style="shape=image;verticalLabelPosition=bottom;labelBackgroundColor=default;verticalAlign=top;aspect=fixed;imageAspect=0;image=data:image/svg+xml,PHN2ZyB4bWxucz0iaHR0cDovL3d3dy53My5vcmcvMjAwMC9zdmciIGZpbGw9Im5vbmUiIHZpZXdCb3g9IjAgMCAyOCAyOCIgaGVpZ2h0PSIyOCIgd2lkdGg9IjI4Ij4mI3hhOzxwYXRoIGZpbGw9IiMyNjg4RUIiIGQ9Ik0xNy41IDguNUMxNy41IDYuNTY2MDMgMTUuOTM0IDUgMTQgNUMxMi4wNjYgNSAxMC41IDYuNTY2MDMgMTAuNSA4LjVDMTAuNSAxMC40MzQgMTIuMDY2IDEyIDE0IDEyQzE1LjkzNCAxMiAxNy41IDEwLjQzNCAxNy41IDguNVpNMTkuNSA4LjVDMTkuNSAxMS41Mzg1IDE3LjAzODUgMTQgMTQgMTRDMTAuOTYxNSAxNCA4LjUgMTEuNTM4NSA4LjUgOC41QzguNSA1LjQ2MTQ3IDEwLjk2MTUgMyAxNCAzQzE3LjAzODUgMyAxOS41IDUuNDYxNDcgMTkuNSA4LjVaTTcgMjAuNjQyOUM3IDIxLjU4NjIgNi45MTk4NyAyMS41IDcuNDU1ODggMjEuNUgyMS4wNDQxQzIxLjU4MDEgMjEuNSAyMS41IDIxLjU4NjIgMjEuNSAyMC42NDI5QzIxLjUgMTguMzU0NyAxOC4xOTYgMTcgMTQuMjUgMTdDMTAuMzA0IDE3IDcgMTguMzU0NyA3IDIwLjY0MjlaTTUgMjAuNjQyOUM1IDE2Ljc2MjYgOS4yOTg5MiAxNSAxNC4yNSAxNUMxOS4yMDExIDE1IDIzLjUgMTYuNzYyNiAyMy41IDIwLjY0MjlDMjMuNSAyMi42NTkzIDIyLjcxODkgMjMuNSAyMS4wNDQxIDIzLjVINy40NTU4OEM1Ljc4MTExIDIzLjUgNSAyMi42NTkzIDUgMjAuNjQyOVoiLz4mI3hhOzwvc3ZnPg==;fontFamily=VK Sans Display;spacing=-7;fontColor=#212121;" parent="AEhkCfdntICbrnmA33MI-5" vertex="1">
          <mxGeometry y="10" width="56" height="56" as="geometry" />
        </mxCell>
        <mxCell id="KlxILGTFoJa7OiWJsDlm-9" value="" style="shape=image;verticalLabelPosition=bottom;labelBackgroundColor=default;verticalAlign=top;aspect=fixed;imageAspect=0;image=data:image/svg+xml,PHN2ZyB4bWxucz0iaHR0cDovL3d3dy53My5vcmcvMjAwMC9zdmciIGZpbGw9Im5vbmUiIHZpZXdCb3g9IjAgMCAyOCAyOCIgaGVpZ2h0PSIyOCIgd2lkdGg9IjI4Ij4mI3hhOzxwYXRoIGZpbGw9IiMyNjg4RUIiIGQ9Ik0xNi40OTAzIDE5QzIwLjY0MDQgMTkgMjQuMDAwOSAxNS42NCAyNC4wMDA5IDExLjVDMjQuMDAwOSAxMS4yODE1IDIzLjk5MTYgMTEuMDY1NCAyMy45NzM0IDEwLjg1MjFMMjEuNzAwNCAxMy4xMjI1QzIxLjEzNzkgMTMuNjg0NCAyMC4zNzU0IDE0IDE5LjU4MDMgMTRIMTYuOTg5N0MxNS4zMzI5IDE0IDEzLjk4OTcgMTIuNjU2OSAxMy45ODk3IDExVjguNDE0NTRDMTMuOTg5NyA3LjYxODMxIDE0LjMwNjIgNi44NTQ3NCAxNC44Njk2IDYuMjkyMDNMMTcuMTM2OSA0LjAyNzI5QzE2LjkyNCA0LjAwOTIzIDE2LjcwODMgNCAxNi40OTAzIDRDMTIuMzQwMSA0IDguOTc5NjEgNy4zNTk5OCA4Ljk3OTYxIDExLjVDOC45Nzk2MSAxMi4wOTMgOS4wNDgxMyAxMi42Njc0IDkuMTc2ODQgMTMuMjE2OEM5LjQwMjU2IDE0LjE4MDQgOS4xNzM2MSAxNS4yOTE2IDguMzc0MTYgMTYuMDkwMkw1LjU4NTY1IDE4Ljg3NTZDNC44MDQ3OCAxOS42NTU1IDQuODA0NzggMjAuOTE5MiA1LjU4NTY1IDIxLjY5OTJMNi4yOTcxNiAyMi40MDk5QzcuMDc5MjcgMjMuMTkxMiA4LjM0ODI0IDIzLjE5MTIgOS4xMzAzNSAyMi40MDk5TDExLjkzMjUgMTkuNjEwOUMxMi43Mjc4IDE4LjgxNjUgMTMuODMyNSAxOC41ODY4IDE0Ljc5MjQgMTguODA4QzE1LjMzNjEgMTguOTMzMyAxNS45MDQxIDE5IDE2LjQ5MDMgMTlaTTE2LjQ5MDMgMjFDMjEuNzQyOSAyMSAyNi4wMDA5IDE2Ljc0NjcgMjYuMDAwOSAxMS41QzI2LjAwMDkgMTAuMzg3NCAyNS44MDk0IDkuMzE5NTEgMjUuNDU3NiA4LjMyNzM2QzI1LjIzMjUgNy42OTI1IDI0LjQzMDggNy41Njg0IDIzLjk1NDIgOC4wNDQ0NEwyMC4yODcgMTEuNzA3NUMyMC4wOTk1IDExLjg5NDggMTkuODQ1MyAxMiAxOS41ODAzIDEySDE2Ljk4OTdDMTYuNDM3NCAxMiAxNS45ODk3IDExLjU1MjMgMTUuOTg5NyAxMVY4LjQxNDU0QzE1Ljk4OTcgOC4xNDkxMyAxNi4wOTUyIDcuODk0NjEgMTYuMjgzIDcuNzA3MDRMMTkuOTQ3NiA0LjA0NjQ5QzIwLjQyNDggMy41Njk4NSAyMC4zMDA2IDIuNzY2ODkgMTkuNjY0NyAyLjU0MjA2QzE4LjY3MTkgMi4xOTEwMyAxNy42MDM0IDIgMTYuNDkwMyAyQzExLjIzNzcgMiA2Ljk3OTYxIDYuMjUzMjkgNi45Nzk2MSAxMS41QzYuOTc5NjEgMTIuMjQ3NyA3LjA2NjA3IDEyLjk3NTEgNy4yMjk1NiAxMy42NzNDNy4zMTM3IDE0LjAzMjIgNy4yMjE3NCAxNC40MTQ1IDYuOTYwNzQgMTQuNjc1Mkw0LjE3MjIzIDE3LjQ2MDVDMi42MDkyNiAxOS4wMjE4IDIuNjA5MjYgMjEuNTUzIDQuMTcyMjMgMjMuMTE0Mkw0Ljg4Mzc0IDIzLjgyNDlDNi40NDY3MiAyNS4zODYyIDguOTgwOCAyNS4zODYyIDEwLjU0MzggMjMuODI0OUwxMy4zNDYgMjEuMDI1OUMxMy42MDU2IDIwLjc2NjUgMTMuOTg1NiAyMC42NzQ1IDE0LjM0MzIgMjAuNzU2OUMxNS4wMzMyIDIwLjkxNiAxNS43NTE5IDIxIDE2LjQ5MDMgMjFaIiBjbGlwLXJ1bGU9ImV2ZW5vZGQiIGZpbGwtcnVsZT0iZXZlbm9kZCIvPiYjeGE7PC9zdmc+;" parent="AEhkCfdntICbrnmA33MI-5" vertex="1">
          <mxGeometry x="40" width="28" height="28" as="geometry" />
        </mxCell>
        <mxCell id="AEhkCfdntICbrnmA33MI-6" value="" style="group" vertex="1" connectable="0" parent="AEhkCfdntICbrnmA33MI-8">
          <mxGeometry x="182.75000000000003" y="294.5" width="80.82999999999998" height="73" as="geometry" />
        </mxCell>
        <mxCell id="KlxILGTFoJa7OiWJsDlm-7" value="L4" style="shape=image;verticalLabelPosition=bottom;labelBackgroundColor=default;verticalAlign=top;aspect=fixed;imageAspect=0;image=data:image/svg+xml,PHN2ZyB4bWxucz0iaHR0cDovL3d3dy53My5vcmcvMjAwMC9zdmciIGZpbGw9Im5vbmUiIHZpZXdCb3g9IjAgMCAyOCAyOCIgaGVpZ2h0PSIyOCIgd2lkdGg9IjI4Ij4mI3hhOzxwYXRoIGZpbGw9IiMyNjg4RUIiIGQ9Ik0xMC4yODYzIDE3LjkxMDJDOS4zODkzMSAxOC40NjEzIDkgMTkuMTI4NCA5IDE5Ljc4NTZDOSAyMC4yNjc1IDkuMTUyODEgMjAuNTMwNCA5LjMyNTMyIDIwLjY4NDFDOS41MTQwMiAyMC44NTIzIDkuODUyMTYgMjEgMTAuNCAyMUgxNy42QzE4LjE0NzggMjEgMTguNDg2IDIwLjg1MjMgMTguNjc0NyAyMC42ODQxQzE4Ljg0NzIgMjAuNTMwNCAxOSAyMC4yNjc1IDE5IDE5Ljc4NTZDMTkgMTkuMTI4NCAxOC42MTA3IDE4LjQ2MTMgMTcuNzEzNyAxNy45MTAyQzE2LjgxNTIgMTcuMzU4MiAxNS41MDU3IDE3IDE0IDE3QzEyLjQ5NDMgMTcgMTEuMTg0OCAxNy4zNTgyIDEwLjI4NjMgMTcuOTEwMlpNOS4yMzkzOCAxNi4yMDYyQzEwLjUxNjEgMTUuNDIxOCAxMi4yMDY3IDE1IDE0IDE1QzE1Ljc5MzMgMTUgMTcuNDgzOSAxNS40MjE4IDE4Ljc2MDYgMTYuMjA2MkMyMC4wMzg4IDE2Ljk5MTUgMjEgMTguMjE3MiAyMSAxOS43ODU2QzIxIDIwLjczODEgMjAuNjcyOCAyMS41ODI0IDIwLjAwNTMgMjIuMTc3M0MxOS4zNTQgMjIuNzU3NyAxOC40OTIyIDIzIDE3LjYgMjNIMTAuNEM5LjUwNzg0IDIzIDguNjQ1OTggMjIuNzU3NyA3Ljk5NDY4IDIyLjE3NzNDNy4zMjcxOSAyMS41ODI0IDcgMjAuNzM4MSA3IDE5Ljc4NTZDNyAxOC4yMTcyIDcuOTYxMTYgMTYuOTkxNSA5LjIzOTM4IDE2LjIwNjJaIiBjbGlwLXJ1bGU9ImV2ZW5vZGQiIGZpbGwtcnVsZT0iZXZlbm9kZCIvPiYjeGE7PHBhdGggZmlsbD0iIzI2ODhFQiIgZD0iTTMuODA0NyAxNy4wODIxQzMuMjg1MTggMTcuNDI4NCAzIDE3Ljg4NzkgMyAxOC41QzMgMTkuMDIyOCAzLjE2OTg5IDE5LjM4MDcgMy4zOTQ2MSAxOS42MDU0QzMuNjE5MzMgMTkuODMwMSAzLjk3NzI1IDIwIDQuNSAyMEM1LjA1MjI4IDIwIDUuNSAyMC40NDc3IDUuNSAyMUM1LjUgMjEuNTUyMyA1LjA1MjI4IDIyIDQuNSAyMkMzLjUyMjc1IDIyIDIuNjMwNjcgMjEuNjY5OSAxLjk4MDM5IDIxLjAxOTZDMS4zMzAxMSAyMC4zNjkzIDEgMTkuNDc3MiAxIDE4LjVDMSAxNy4xMTIxIDEuNzE0ODIgMTYuMDcxNiAyLjY5NTMgMTUuNDE3OUMzLjY0NjE0IDE0Ljc4NDEgNC44NTE2NiAxNC41IDYgMTQuNUM2LjU1MjI4IDE0LjUgNyAxNC45NDc3IDcgMTUuNUM3IDE2LjA1MjMgNi41NTIyOCAxNi41IDYgMTYuNUM1LjE0ODM0IDE2LjUgNC4zNTM4NiAxNi43MTU5IDMuODA0NyAxNy4wODIxWiIgY2xpcC1ydWxlPSJldmVub2RkIiBmaWxsLXJ1bGU9ImV2ZW5vZGQiLz4mI3hhOzxwYXRoIGZpbGw9IiMyNjg4RUIiIGQ9Ik0yNC4xOTUzIDE3LjA4MjFDMjQuNzE0OCAxNy40Mjg0IDI1IDE3Ljg4NzkgMjUgMTguNUMyNSAxOS4wMjI4IDI0LjgzMDEgMTkuMzgwNyAyNC42MDU0IDE5LjYwNTRDMjQuMzgwNyAxOS44MzAxIDI0LjAyMjggMjAgMjMuNSAyMEMyMi45NDc3IDIwIDIyLjUgMjAuNDQ3NyAyMi41IDIxQzIyLjUgMjEuNTUyMyAyMi45NDc3IDIyIDIzLjUgMjJDMjQuNDc3MiAyMiAyNS4zNjkzIDIxLjY2OTkgMjYuMDE5NiAyMS4wMTk2QzI2LjY2OTkgMjAuMzY5MyAyNyAxOS40NzcyIDI3IDE4LjVDMjcgMTcuMTEyMSAyNi4yODUyIDE2LjA3MTYgMjUuMzA0NyAxNS40MTc5QzI0LjM1MzkgMTQuNzg0MSAyMy4xNDgzIDE0LjUgMjIgMTQuNUMyMS40NDc3IDE0LjUgMjEgMTQuOTQ3NyAyMSAxNS41QzIxIDE2LjA1MjMgMjEuNDQ3NyAxNi41IDIyIDE2LjVDMjIuODUxNyAxNi41IDIzLjY0NjEgMTYuNzE1OSAyNC4xOTUzIDE3LjA4MjFaIiBjbGlwLXJ1bGU9ImV2ZW5vZGQiIGZpbGwtcnVsZT0iZXZlbm9kZCIvPiYjeGE7PHBhdGggZmlsbD0iIzI2ODhFQiIgZD0iTTExLjUgOC41QzExLjUgOS44ODA3MSAxMi42MTkzIDExIDE0IDExQzE1LjM4MDcgMTEgMTYuNSA5Ljg4MDcxIDE2LjUgOC41QzE2LjUgNy4xMTkyOSAxNS4zODA3IDYgMTQgNkMxMi42MTkzIDYgMTEuNSA3LjExOTI5IDExLjUgOC41Wk0xNCA0QzExLjUxNDcgNCA5LjUgNi4wMTQ3MiA5LjUgOC41QzkuNSAxMC45ODUzIDExLjUxNDcgMTMgMTQgMTNDMTYuNDg1MyAxMyAxOC41IDEwLjk4NTMgMTguNSA4LjVDMTguNSA2LjAxNDcyIDE2LjQ4NTMgNCAxNCA0WiIgY2xpcC1ydWxlPSJldmVub2RkIiBmaWxsLXJ1bGU9ImV2ZW5vZGQiLz4mI3hhOzxwYXRoIGZpbGw9IiMyNjg4RUIiIGQ9Ik03IDYuNUM1Ljg5NTQzIDYuNSA1IDcuMzk1NDMgNSA4LjVDNSA5LjYwNDU3IDUuODk1NDMgMTAuNSA3IDEwLjVDNy41NTIyOCAxMC41IDggMTAuOTQ3NyA4IDExLjVDOCAxMi4wNTIzIDcuNTUyMjggMTIuNSA3IDEyLjVDNC43OTA4NiAxMi41IDMgMTAuNzA5MSAzIDguNUMzIDYuMjkwODYgNC43OTA4NiA0LjUgNyA0LjVDNy41NTIyOCA0LjUgOCA0Ljk0NzcyIDggNS41QzggNi4wNTIyOCA3LjU1MjI4IDYuNSA3IDYuNVoiIGNsaXAtcnVsZT0iZXZlbm9kZCIgZmlsbC1ydWxlPSJldmVub2RkIi8+JiN4YTs8cGF0aCBmaWxsPSIjMjY4OEVCIiBkPSJNMjEgNi41QzIyLjEwNDYgNi41IDIzIDcuMzk1NDMgMjMgOC41QzIzIDkuNjA0NTcgMjIuMTA0NiAxMC41IDIxIDEwLjVDMjAuNDQ3NyAxMC41IDIwIDEwLjk0NzcgMjAgMTEuNUMyMCAxMi4wNTIzIDIwLjQ0NzcgMTIuNSAyMSAxMi41QzIzLjIwOTEgMTIuNSAyNSAxMC43MDkxIDI1IDguNUMyNSA2LjI5MDg2IDIzLjIwOTEgNC41IDIxIDQuNUMyMC40NDc3IDQuNSAyMCA0Ljk0NzcyIDIwIDUuNUMyMCA2LjA1MjI4IDIwLjQ0NzcgNi41IDIxIDYuNVoiIGNsaXAtcnVsZT0iZXZlbm9kZCIgZmlsbC1ydWxlPSJldmVub2RkIi8+JiN4YTs8L3N2Zz4=;spacing=-6;" parent="AEhkCfdntICbrnmA33MI-6" vertex="1">
          <mxGeometry y="13" width="60" height="60" as="geometry" />
        </mxCell>
        <mxCell id="kx820ixtvMuCey8GTEla-3" value="" style="shape=image;verticalLabelPosition=bottom;labelBackgroundColor=default;verticalAlign=top;aspect=fixed;imageAspect=0;image=data:image/svg+xml,PHN2ZyB4bWxucz0iaHR0cDovL3d3dy53My5vcmcvMjAwMC9zdmciIGZpbGw9Im5vbmUiIHZpZXdCb3g9IjAgMCAyOCAyOCIgaGVpZ2h0PSIyOCIgd2lkdGg9IjI4Ij4mI3hhOzxwYXRoIGZpbGw9IiMyNjg4RUIiIGQ9Ik0yMyAyMUMyMy41NTIzIDIxIDI0IDIxLjQ0NzcgMjQgMjJDMjQgMjIuNTUyMyAyMy41NTIzIDIzIDIzIDIzSDVDNC40NDc3MiAyMyA0IDIyLjU1MjMgNCAyMkM0IDIxLjQ0NzcgNC40NDc3MiAyMSA1IDIxSDIzWk0yMiA2QzIyLjU1MjMgNiAyMyA2LjQ0NzcyIDIzIDdWMTJDMjMgMTIuNTUyMyAyMi41NTIzIDEzIDIyIDEzQzIxLjQ0NzcgMTMgMjEgMTIuNTUyMyAyMSAxMlY5LjQxNEwxNC43MDcxIDE1LjcwNzFDMTQuMzQ2NiAxNi4wNjc2IDEzLjc3OTQgMTYuMDk1MyAxMy4zODcxIDE1Ljc5MDNMMTMuMjkyOSAxNS43MDcxTDExIDEzLjQxNDJMNi43MDcxMSAxNy43MDcxQzYuMzE2NTggMTguMDk3NiA1LjY4MzQyIDE4LjA5NzYgNS4yOTI4OSAxNy43MDcxQzQuOTAyMzcgMTcuMzE2NiA0LjkwMjM3IDE2LjY4MzQgNS4yOTI4OSAxNi4yOTI5TDEwLjI5MjkgMTEuMjkyOUMxMC42ODM0IDEwLjkwMjQgMTEuMzE2NiAxMC45MDI0IDExLjcwNzEgMTEuMjkyOUwxNCAxMy41ODU4TDE5LjU4NCA4SDE3QzE2LjQ4NzIgOCAxNi4wNjQ1IDcuNjEzOTYgMTYuMDA2NyA3LjExNjYyTDE2IDdDMTYgNi40NDc3MiAxNi40NDc3IDYgMTcgNkgyMloiLz4mI3hhOzwvc3ZnPg==;" parent="AEhkCfdntICbrnmA33MI-6" vertex="1">
          <mxGeometry x="52.829999999999984" width="28" height="28" as="geometry" />
        </mxCell>
      </root>
    </mxGraphModel>
  </diagram>
</mxfile>
